<svg width="24" height="24" xmlns="http://www.w3.org/2000/svg" xmlns:xlink="http://www.w3.org/1999/xlink">
 <defs>
  <path id="a" d="m0,0l24,0l0,24l-24,0l0,-24z"/>
 </defs>
 <clipPath id="b">
  <use id="svg_1" xlink:href="#a"/>
 </clipPath>
 <g>
  <title>background</title>
  <rect fill="none" id="canvas_background" height="3.5" width="3.5" y="-1" x="-1"/>
 </g>
 <g>
  <title>Layer 1</title>
  <path fill="#00b8d4" id="svg_2" d="m12,1.9375c-3.86,0 -7,3.14 -7,7c0,5.25 7,13 7,13s7,-7.75 7,-13c0,-3.86 -3.14,-7 -7,-7zm0,2c1.1,0 2,0.9 2,2c0,1.11 -0.9,2 -2,2s-2,-0.89 -2,-2c0,-1.099999 0.9,-2 2,-2zm0,10c-1.67,0 -3.14,-0.85 -4,-2.15c0.02,-1.320004 2.67,-2.05 4,-2.05s3.98,0.73 4,2.05c-0.86,1.299995 -2.33,2.15 -4,2.15z" clip-path="url(#b)"/>
  <ellipse stroke="null" fill="#00b8d4" stroke-width="null" stroke-opacity="null" cx="12.0625" cy="8.937506" id="svg_3" rx="6.968734" ry="6.968738"/>
  <path stroke="null" id="svg_4" d="m7.746492,7.265674l0.911465,-2.49612l6.684085,0l0.911468,2.49612m-0.911468,2.773465a0.911466,0.83204 0 0 1 -0.911466,-0.83204a0.911466,0.83204 0 0 1 0.911466,-0.83204a0.911466,0.83204 0 0 1 0.911468,0.83204a0.911466,0.83204 0 0 1 -0.911468,0.83204m-6.684085,0a0.911466,0.83204 0 0 1 -0.911465,-0.83204a0.911466,0.83204 0 0 1 0.911465,-0.83204a0.911466,0.83204 0 0 1 0.911468,0.83204a0.911466,0.83204 0 0 1 -0.911468,0.83204m7.546938,-5.546931c-0.121527,-0.321723 -0.461807,-0.554694 -0.862853,-0.554694l-6.684085,0c-0.401045,0 -0.741324,0.232971 -0.862853,0.554694l-1.2639,3.328159l0,4.437545a0.607644,0.554693 0 0 0 0.607645,0.554694l0.607644,0a0.607644,0.554693 0 0 0 0.607645,-0.554694l0,-0.554693l7.291728,0l0,0.554693a0.607644,0.554693 0 0 0 0.607644,0.554694l0.607641,0a0.607644,0.554693 0 0 0 0.607645,-0.554694l0,-4.437545l-1.263901,-3.328159z" fill="#ffffff"/>
 </g>
</svg>