<svg width="24" height="24" xmlns="http://www.w3.org/2000/svg" xmlns:xlink="http://www.w3.org/1999/xlink">
 <defs>
  <path d="m0,0l24,0l0,24l-24,0l0,-24z" id="a"/>
 </defs>
 <clipPath id="b">
  <use xlink:href="#a" id="svg_1"/>
 </clipPath>
 <g>
  <title>background</title>
  <rect x="-1" y="-1" width="3.499981" height="3.499981" id="canvas_background" fill="none"/>
 </g>
 <g>
  <title>Layer 1</title>
  <path clip-path="url(#b)" d="m12,1.9375c-3.86,0 -7,3.14 -7,7c0,5.25 7,13 7,13s7,-7.75 7,-13c0,-3.86 -3.14,-7 -7,-7zm0,2c1.1,0 2,0.9 2,2c0,1.11 -0.9,2 -2,2s-2,-0.89 -2,-2c0,-1.099999 0.9,-2 2,-2zm0,10c-1.67,0 -3.14,-0.85 -4,-2.15c0.02,-1.320004 2.67,-2.05 4,-2.05s3.98,0.73 4,2.05c-0.86,1.299994 -2.33,2.15 -4,2.15z" id="svg_2" fill="#ff3d00"/>
  <ellipse ry="6.968738" rx="6.968734" id="svg_3" cy="8.937506" cx="12.0625" stroke-opacity="null" stroke-width="null" fill="#ff3d00" stroke="null"/>
  <path stroke="null" id="svg_4" d="m14.875078,10.791774l-0.937527,0l0,0.965304l0.937527,0m0,-2.895913l-0.937527,0l0,0.965303l0.937527,0m0.937528,2.895913l-3.750108,0l0,-0.965303l0.937528,0l0,-0.965304l-0.937528,0l0,-0.965305l0.937528,0l0,-0.965303l-0.937528,0l0,-0.965303l3.750108,0m-4.687634,-0.965304l-0.937528,0l0,-0.965305l0.937528,0m0,2.895912l-0.937528,0l0,-0.965303l0.937528,0m0,2.895912l-0.937528,0l0,-0.965305l0.937528,0m0,2.895913l-0.937528,0l0,-0.965303l0.937528,0m-1.875054,-4.82652l-0.937526,0l0,-0.965305l0.937526,0m0,2.895912l-0.937526,0l0,-0.965303l0.937526,0m0,2.895912l-0.937526,0l0,-0.965305l0.937526,0m0,2.895913l-0.937526,0l0,-0.965303l0.937526,0m2.812581,-4.82652l0,-1.930608l-4.687635,0l0,8.687735l9.37527,0l0,-6.757127l-4.687635,0z" fill="#ffffff"/>
 </g>
</svg>