<svg width="24" height="24" xmlns="http://www.w3.org/2000/svg" xmlns:xlink="http://www.w3.org/1999/xlink">
 <defs>
  <path d="m0,0l24,0l0,24l-24,0l0,-24z" id="a"/>
 </defs>
 <clipPath id="b">
  <use xlink:href="#a" id="svg_1"/>
 </clipPath>
 <g>
  <title>background</title>
  <rect x="-1" y="-1" width="3.499994" height="3.499994" id="canvas_background" fill="none"/>
 </g>
 <g>
  <title>Layer 1</title>
  <path clip-path="url(#b)" d="m12.0625,1.9375c-3.86,0 -7,3.14 -7,7c0,5.25 7,13 7,13s7,-7.75 7,-13c0,-3.86 -3.14,-7 -7,-7zm0,2c1.1,0 2,0.9 2,2c0,1.11 -0.9,2 -2,2s-2,-0.89 -2,-2c0,-1.099999 0.9,-2 2,-2zm0,10c-1.67,0 -3.14,-0.85 -4,-2.15c0.02,-1.320004 2.67,-2.05 4,-2.05s3.98,0.73 4,2.05c-0.86,1.299996 -2.33,2.15 -4,2.15z" id="svg_2" fill="#5f00bf"/>
  <ellipse ry="6.968738" rx="6.968734" id="svg_3" cy="8.937506" cx="12.0625" stroke-opacity="null" stroke-width="null" fill="#5f00bf" stroke="null"/>
  <path stroke="null" fill="#ffffff" id="svg_4" d="m6.75,5.625l0,0.767578c0,2.123632 1.091524,3.981174 2.716463,5.014845l0,2.405078l7.408537,0l0,-1.023438c0,-1.361173 -2.632499,-2.046875 -3.95122,-2.046875c0,0 -0.083963,0 -0.123474,0c-2.346038,0 -4.321647,-2.046876 -4.321647,-4.34961l0,-0.767578m4.445121,0a1.97561,2.046875 0 0 0 -1.975609,2.046875a1.97561,2.046875 0 0 0 1.975609,2.046875a1.97561,2.046875 0 0 0 1.975612,-2.046875a1.97561,2.046875 0 0 0 -1.975612,-2.046875z"/>
 </g>
</svg>